<?xml version="1.0" encoding="UTF-8" standalone="no"?>
<svg width="76px" height="76px" viewBox="0 0 76 76" version="1.1" xmlns="http://www.w3.org/2000/svg" xmlns:xlink="http://www.w3.org/1999/xlink">
    <!-- Generator: sketchtool 46.2 (44496) - http://www.bohemiancoding.com/sketch -->
    <title>68CC3684-56F0-4F4A-AD75-C19505CCCD8C</title>
    <desc>Created with sketchtool.</desc>
    <defs>
        <linearGradient x1="50%" y1="-24.2449576%" x2="50%" y2="72.1678358%" id="linearGradient-1">
            <stop stop-color="#7BFE80" offset="0%"></stop>
            <stop stop-color="#05B8E2" offset="100%"></stop>
        </linearGradient>
        <linearGradient x1="50%" y1="8.13881479%" x2="50%" y2="92.1624905%" id="linearGradient-2">
            <stop stop-color="#FFFF58" offset="0%"></stop>
            <stop stop-color="#FFCF12" offset="100%"></stop>
        </linearGradient>
        <linearGradient x1="50%" y1="0%" x2="50%" y2="86.7854363%" id="linearGradient-3">
            <stop stop-color="#FF2424" offset="0%"></stop>
            <stop stop-color="#FF00B6" offset="100%"></stop>
        </linearGradient>
    </defs>
    <g id="Index-page-final" stroke="none" stroke-width="1" fill="none" fill-rule="evenodd">
        <g id="Desktop1440-HD_index_all_Jul" transform="translate(-682.000000, -4247.000000)">
            <g id="Group-61" transform="translate(682.000000, 4247.000000)">
                <g id="Group-49">
                    <path d="M7.91666667,76 C17.9444444,76 27.9722222,76 38,76 C58.9868205,76 76,58.9868205 76,38 C76,17.0131795 58.9868205,0 38,0 C17.0131795,0 0,17.0131795 0,38 C0,48.0277778 0,58.0555556 0,68.0833333 L-7.10542736e-15,68.0833333 C-6.56998064e-15,72.4555876 3.5444124,76 7.91666667,76 Z" id="Oval-Copy" fill="#ACB2B6"></path>
                    <circle id="Oval-Copy-2" fill="#FFFFFF" cx="38" cy="38" r="33.9646018"></circle>
                    <path d="M42.1362305,45.6098633 C37.7449597,50.5028385 25.0862066,66.0242694 20.0856292,62.3465859 C17.7154497,60.6034332 15.6093123,58.5221607 13.8383337,56.1738569 C12.4536779,54.3378141 11.2739059,52.3385342 10.3330082,50.209994 C8.68526798,46.4824035 7.77011973,42.3583911 7.77011973,38.0204407 C7.77011973,21.3530539 21.2801813,7.84397015 37.9454139,7.84397015 C49.4184827,7.84397015 59.3990687,14.2484663 64.5031962,23.6786645 C55.8730469,30.7016602 54.8960137,31.3922697 42.1362305,45.6098633 Z" id="Path" fill="url(#linearGradient-1)"></path>
                    <path d="M64.5075595,23.6867288 C66.8136859,27.9505447 68.1230609,32.832497 68.1230609,38.0204407 C68.1230609,54.6878276 54.6082937,68.1969113 37.9454139,68.1969113 C30.6758868,68.1969113 24.0067208,65.6264241 18.797384,61.3445768 C21.2759261,60.9035736 24.465706,59.7268083 29.3761134,56.1126539 C36.7172798,50.7094142 43.545653,36.5634875 51.413323,30.5249334 C57.7237476,25.6815883 61.5116332,24.35894 64.5075595,23.6867288 L64.5075595,23.6867288 Z" id="Combined-Shape" fill="url(#linearGradient-2)"></path>
                    <path d="M37.9454139,68.1969113 C21.2801813,68.1969113 7.77011973,54.6878276 7.77011973,38.0204407 C7.77011973,37.8958914 7.77087414,37.7715184 7.77237863,37.6473261 C8.02537173,37.5485854 8.67741011,37.4603638 8.75164948,37.4524179 C12.2650355,37.1120194 16.4378932,37.4029836 22.9199928,39.6141855 C29.4020923,41.8253875 35.9058053,46.53637 45.5365964,50.0737926 C53.567088,53.0234198 60.440275,52.388105 65.7275055,49.8224979 C61.1323002,60.6239686 50.4212439,68.1969113 37.9454139,68.1969113 Z" id="Combined-Shape" fill-opacity="0.62" fill="url(#linearGradient-3)"></path>
                </g>
            </g>
        </g>
    </g>
</svg>